<?xml version="1.0" standalone="no"?>
<!DOCTYPE svg PUBLIC "-//W3C//DTD SVG 20010904//EN"
 "http://www.w3.org/TR/2001/REC-SVG-20010904/DTD/svg10.dtd">
<svg version="1.0" xmlns="http://www.w3.org/2000/svg"
 width="596.000000pt" height="334.000000pt" viewBox="0 0 596.000000 334.000000"
 preserveAspectRatio="xMidYMid meet">
<metadata>
Created by potrace 1.16, written by Peter Selinger 2001-2019
</metadata>
<g transform="translate(0.000000,334.000000) scale(0.100000,-0.100000)"
fill="#000000" stroke="none">
<path d="M0 1670 l0 -1670 2975 0 2975 0 0 1670 0 1670 -2975 0 -2975 0 0
-1670z m3274 635 c92 -27 157 -100 172 -192 5 -31 1 -51 -19 -88 l-24 -49 -7
34 c-19 99 -31 126 -76 170 -54 55 -114 75 -212 72 -192 -6 -318 -129 -338
-328 -13 -127 -25 -388 -25 -534 0 -116 2 -129 27 -176 49 -93 121 -130 251
-127 70 1 99 7 145 27 51 23 54 24 32 5 -75 -63 -220 -105 -334 -96 -109 8
-177 52 -222 142 -22 47 -27 70 -29 157 -3 122 19 502 34 585 22 116 113 253
215 322 41 28 122 62 186 80 54 14 167 13 224 -4z m-153 -255 c5 0 18 -9 29
-20 15 -15 20 -33 20 -76 l0 -57 90 6 c50 4 90 5 90 3 0 -10 -142 -59 -195
-68 -66 -10 -99 -34 -109 -76 -14 -64 -18 -249 -6 -271 13 -26 33 -26 135 4
137 40 171 39 215 -5 29 -29 25 -75 -15 -159 -36 -75 -59 -94 -30 -25 19 45
31 149 19 156 -5 2 -54 2 -108 -1 l-99 -6 -12 -59 c-9 -46 -19 -66 -44 -88
-34 -30 -56 -34 -95 -17 -44 20 -48 49 -37 245 6 98 13 235 17 304 4 79 12
137 22 159 16 34 65 64 90 56 8 -3 18 -5 23 -5z"/>
</g>
</svg>
